<svg xmlns="http://www.w3.org/2000/svg" viewBox="0 0 256 256" role="img" aria-label="Mago sombrio sob a lua">
<defs><radialGradient id="b" cx="72%" cy="24%"><stop stop-color="#99d8ff"/><stop offset=".26" stop-color="#3056a5"/><stop offset="1" stop-color="#050917"/></radialGradient><linearGradient id="r" x2="1" y2="1"><stop stop-color="#152f67"/><stop offset="1" stop-color="#050712"/></linearGradient></defs>
<rect width="256" height="256" rx="34" fill="url(#b)"/><circle cx="184" cy="61" r="33" fill="#d8f3ff" opacity=".82"/><path d="M32 225c9-56 45-87 96-87s87 31 96 87" fill="url(#r)"/><path d="M58 108c28-17 36-50 55-73 25 20 41 53 76 72-34 16-98 17-131 1Z" fill="#070b19" stroke="#4168aa" stroke-width="4"/><ellipse cx="124" cy="116" rx="50" ry="12" fill="#050711"/><path d="M91 113c2 53 12 73 35 75 25-3 35-25 38-75" fill="#0a1020"/><path d="M104 139l13 5m29-5-13 5" stroke="#71b7ee" stroke-width="5" stroke-linecap="round"/><circle cx="128" cy="205" r="12" fill="#73d5ff" opacity=".85"/><circle cx="128" cy="205" r="22" fill="none" stroke="#73d5ff" opacity=".35"/></svg>
